<svg width="96" height="204" viewBox="0 0 96 204" fill="none" xmlns="http://www.w3.org/2000/svg">
<circle cx="3" cy="3" r="3" fill="#BFDBFE"/>
<circle cx="21" cy="3" r="3" fill="#BFDBFE"/>
<circle cx="39" cy="3" r="3" fill="#BFDBFE"/>
<circle cx="57" cy="3" r="3" fill="#BFDBFE"/>
<circle cx="75" cy="3" r="3" fill="#BFDBFE"/>
<circle cx="93" cy="3" r="3" fill="#BFDBFE"/>
<circle cx="3" cy="21" r="3" fill="#BFDBFE"/>
<circle cx="21" cy="21" r="3" fill="#BFDBFE"/>
<circle cx="39" cy="21" r="3" fill="#BFDBFE"/>
<circle cx="57" cy="21" r="3" fill="#BFDBFE"/>
<circle cx="75" cy="21" r="3" fill="#BFDBFE"/>
<circle cx="93" cy="21" r="3" fill="#BFDBFE"/>
<circle cx="3" cy="39" r="3" fill="#BFDBFE"/>
<circle cx="21" cy="39" r="3" fill="#BFDBFE"/>
<circle cx="39" cy="39" r="3" fill="#BFDBFE"/>
<circle cx="57" cy="39" r="3" fill="#BFDBFE"/>
<circle cx="75" cy="39" r="3" fill="#BFDBFE"/>
<circle cx="93" cy="39" r="3" fill="#BFDBFE"/>
<circle cx="3" cy="57" r="3" fill="#BFDBFE"/>
<circle cx="21" cy="57" r="3" fill="#BFDBFE"/>
<circle cx="39" cy="57" r="3" fill="#BFDBFE"/>
<circle cx="57" cy="57" r="3" fill="#BFDBFE"/>
<circle cx="75" cy="57" r="3" fill="#BFDBFE"/>
<circle cx="93" cy="57" r="3" fill="#BFDBFE"/>
<circle cx="3" cy="75" r="3" fill="#BFDBFE"/>
<circle cx="21" cy="75" r="3" fill="#BFDBFE"/>
<circle cx="39" cy="75" r="3" fill="#BFDBFE"/>
<circle cx="57" cy="75" r="3" fill="#BFDBFE"/>
<circle cx="75" cy="75" r="3" fill="#BFDBFE"/>
<circle cx="93" cy="75" r="3" fill="#BFDBFE"/>
<circle cx="3" cy="93" r="3" fill="#BFDBFE"/>
<circle cx="21" cy="93" r="3" fill="#BFDBFE"/>
<circle cx="39" cy="93" r="3" fill="#BFDBFE"/>
<circle cx="57" cy="93" r="3" fill="#BFDBFE"/>
<circle cx="75" cy="93" r="3" fill="#BFDBFE"/>
<circle cx="93" cy="93" r="3" fill="#BFDBFE"/>
<circle cx="3" cy="111" r="3" fill="#BFDBFE"/>
<circle cx="21" cy="111" r="3" fill="#BFDBFE"/>
<circle cx="39" cy="111" r="3" fill="#BFDBFE"/>
<circle cx="57" cy="111" r="3" fill="#BFDBFE"/>
<circle cx="75" cy="111" r="3" fill="#BFDBFE"/>
<circle cx="93" cy="111" r="3" fill="#BFDBFE"/>
<circle cx="3" cy="129" r="3" fill="#BFDBFE"/>
<circle cx="21" cy="129" r="3" fill="#BFDBFE"/>
<circle cx="39" cy="129" r="3" fill="#BFDBFE"/>
<circle cx="57" cy="129" r="3" fill="#BFDBFE"/>
<circle cx="75" cy="129" r="3" fill="#BFDBFE"/>
<circle cx="93" cy="129" r="3" fill="#BFDBFE"/>
<circle cx="3" cy="147" r="3" fill="#BFDBFE"/>
<circle cx="21" cy="147" r="3" fill="#BFDBFE"/>
<circle cx="39" cy="147" r="3" fill="#BFDBFE"/>
<circle cx="57" cy="147" r="3" fill="#BFDBFE"/>
<circle cx="75" cy="147" r="3" fill="#BFDBFE"/>
<circle cx="93" cy="147" r="3" fill="#BFDBFE"/>
<circle cx="3" cy="165" r="3" fill="#BFDBFE"/>
<circle cx="21" cy="165" r="3" fill="#BFDBFE"/>
<circle cx="39" cy="165" r="3" fill="#BFDBFE"/>
<circle cx="57" cy="165" r="3" fill="#BFDBFE"/>
<circle cx="75" cy="165" r="3" fill="#BFDBFE"/>
<circle cx="93" cy="165" r="3" fill="#BFDBFE"/>
<circle cx="3" cy="183" r="3" fill="#BFDBFE"/>
<circle cx="21" cy="183" r="3" fill="#BFDBFE"/>
<circle cx="39" cy="183" r="3" fill="#BFDBFE"/>
<circle cx="57" cy="183" r="3" fill="#BFDBFE"/>
<circle cx="75" cy="183" r="3" fill="#BFDBFE"/>
<circle cx="93" cy="183" r="3" fill="#BFDBFE"/>
<circle cx="3" cy="201" r="3" fill="#BFDBFE"/>
<circle cx="21" cy="201" r="3" fill="#BFDBFE"/>
<circle cx="39" cy="201" r="3" fill="#BFDBFE"/>
<circle cx="57" cy="201" r="3" fill="#BFDBFE"/>
<circle cx="75" cy="201" r="3" fill="#BFDBFE"/>
<circle cx="93" cy="201" r="3" fill="#BFDBFE"/>
</svg>
